<?xml version="1.0" encoding="UTF-8"?>
<!-- Generator: Adobe Illustrator 19.1.0, SVG Export Plug-In . SVG Version: 6.00 Build 0)  -->
<svg version="1.1" id="Layer_1" xmlns="http://www.w3.org/2000/svg" xmlns:xlink="http://www.w3.org/1999/xlink" x="0px" y="0px" viewBox="0 0 128 128" style="enable-background:new 0 0 128 128;" xml:space="preserve"><title>2 upload.wikimedia.org/wikipedia/commons/4/48/Creative-Tail-Objects-binoculars.svg</title>
<style type="text/css">
	.st0{fill:#4BB8A1;}
	.st1{fill:#44A691;}
	.st2{fill:#B46535;}
	.st3{fill:#A75E31;}
	.st4{fill:#E78343;}
	.st5{fill:#1A1A1A;}
	.st6{fill:#242424;}
	.st7{fill:#D97A40;}
	.st8{fill:#9ED8D1;}
	.st9{opacity:0.3;fill:#FFFFFF;}
	.st10{opacity:0.2;fill:#FFFFFF;}
	.st11{opacity:0.4;fill:#93D1F0;}
	.st12{opacity:0.2;fill:#93D1F0;}
</style>
<g>
	<circle class="st0" cx="64" cy="64" r="64"/>
	<path class="st1" d="M124.6,84.5c0-0.1-0.1-0.2-0.1-0.3c-0.1-0.2-0.1-0.3-0.2-0.5c-0.1-0.2-0.1-0.3-0.2-0.5   c-0.1-0.2-0.1-0.3-0.2-0.5c-0.1-0.2-0.1-0.3-0.2-0.5c-0.1-0.2-0.1-0.3-0.2-0.5c-0.1-0.2-0.1-0.3-0.2-0.5c-0.1-0.2-0.1-0.3-0.2-0.5   c-0.1-0.2-0.1-0.3-0.2-0.5c-0.1-0.2-0.1-0.3-0.2-0.5c-0.1-0.2-0.1-0.3-0.2-0.5c-0.1-0.2-0.1-0.3-0.2-0.5c-0.1-0.2-0.1-0.3-0.2-0.5   c-0.1-0.2-0.1-0.3-0.2-0.5c-0.1-0.2-0.1-0.3-0.2-0.5c-0.1-0.2-0.1-0.3-0.2-0.5c-0.1-0.2-0.1-0.3-0.2-0.5c-0.1-0.2-0.1-0.3-0.2-0.5   c-0.1-0.2-0.1-0.3-0.2-0.5c-0.1-0.2-0.1-0.3-0.2-0.5c-0.1-0.2-0.1-0.3-0.2-0.5c-0.1-0.2-0.1-0.3-0.2-0.5c-0.1-0.2-0.1-0.3-0.2-0.5   c-0.1-0.2-0.1-0.3-0.2-0.5c-0.1-0.2-0.1-0.3-0.2-0.5c-0.1-0.2-0.1-0.3-0.2-0.5c-0.1-0.2-0.1-0.3-0.2-0.5c-0.1-0.2-0.1-0.3-0.2-0.5   c-0.1-0.2-0.1-0.3-0.2-0.5c-0.1-0.2-0.1-0.3-0.2-0.5c-0.1-0.2-0.1-0.3-0.2-0.5c-0.1-0.2-0.1-0.3-0.2-0.5c-0.1-0.2-0.1-0.3-0.2-0.5   c-0.1-0.2-0.1-0.3-0.2-0.5c-0.1-0.2-0.1-0.3-0.2-0.5c-0.1-0.2-0.1-0.3-0.2-0.5c-0.1-0.2-0.1-0.3-0.2-0.5c-0.1-0.2-0.1-0.3-0.2-0.5   c-0.1-0.2-0.1-0.3-0.2-0.5c-0.1-0.2-0.1-0.3-0.2-0.5c-0.1-0.2-0.1-0.3-0.2-0.5c-0.1-0.2-0.1-0.3-0.2-0.5c-0.1-0.2-0.1-0.3-0.2-0.5   c-0.1-0.2-0.1-0.3-0.2-0.5c-0.1-0.2-0.1-0.3-0.2-0.5c-0.1-0.2-0.1-0.3-0.2-0.5c-0.1-0.2-0.1-0.3-0.2-0.5c-0.1-0.2-0.1-0.3-0.2-0.5   c-0.1-0.2-0.1-0.3-0.2-0.5c-0.1-0.2-0.1-0.3-0.2-0.5c-0.1-0.2-0.1-0.3-0.2-0.5c-0.1-0.2-0.1-0.3-0.2-0.5c-0.1-0.2-0.1-0.3-0.2-0.5   c-0.1-0.2-0.1-0.3-0.2-0.5c-3-7.7-10.3-13.4-18.9-14C92.3,41.8,89.8,41,87,41c-0.3,0-0.7,0-1,0h0c-5.5,0-10.2,3.7-12.5,8.5   C71.6,46.2,68.1,44,64,44s-7.6,2.2-9.5,5.5c-2.4-5-7.5-8.5-13.5-8.5c-0.3,0-0.7,0-1,0h0c-2.4,0-4.6,0.9-6.6,2   C22,43.8,13,53.4,13,65c0,2.5,0.4,4.8,1.2,7.1c0.2,0.8,0.5,1.6,0.9,2.3c0.1,0.3,0.3,0.7,0.4,1c0.1,0.3,0.3,0.7,0.4,1   c0.1,0.3,0.3,0.7,0.4,1c0.1,0.3,0.3,0.7,0.4,1c0.1,0.3,0.3,0.7,0.4,1c0.1,0.3,0.3,0.7,0.4,1c0.1,0.3,0.3,0.7,0.4,1   c0.1,0.3,0.3,0.7,0.4,1c0.1,0.3,0.3,0.7,0.4,1c0.1,0.3,0.3,0.7,0.4,1c0.1,0.3,0.3,0.7,0.4,1c0.1,0.3,0.3,0.7,0.4,1   c0.1,0.3,0.3,0.7,0.4,1c0.1,0.3,0.3,0.7,0.4,1c0.1,0.3,0.3,0.7,0.4,1c0.1,0.3,0.3,0.7,0.4,1c0.1,0.3,0.2,0.6,0.3,0.9   c0.2,0.6,0.4,1.2,0.7,1.8c0.1,0.3,0.3,0.7,0.4,1c0.1,0.3,0.3,0.7,0.4,1c0.1,0.3,0.3,0.7,0.4,1c0.1,0.3,0.3,0.7,0.4,1   c0.1,0.3,0.3,0.7,0.4,1c0.1,0.3,0.3,0.7,0.4,1c0.1,0.3,0.3,0.7,0.4,1c0.1,0.3,0.3,0.7,0.4,1c0.1,0.3,0.3,0.7,0.4,1   c0.1,0.3,0.3,0.7,0.4,1c0.1,0.3,0.3,0.7,0.4,1c0.1,0.3,0.3,0.7,0.4,1c0.1,0.3,0.3,0.7,0.4,1c0.1,0.3,0.3,0.7,0.4,1   c0.1,0.3,0.3,0.7,0.4,1c0.1,0.3,0.2,0.6,0.4,0.9c0.2,0.6,0.4,1.2,0.7,1.8c0.1,0.3,0.3,0.7,0.4,1c0.1,0.3,0.3,0.7,0.4,1   c0.1,0.3,0.3,0.7,0.4,1c0.1,0.3,0.3,0.7,0.4,1c0.1,0.3,0.3,0.7,0.4,1c0.1,0.3,0.3,0.7,0.4,1c0.1,0.3,0.3,0.7,0.4,1   c0.1,0.3,0.3,0.7,0.4,1c0.1,0.3,0.2,0.6,0.4,0.9c9,4.9,19.4,7.7,30.4,7.7C92.2,128,116.1,109.8,124.6,84.5z"/>
	<g>
		<circle class="st2" cx="41" cy="56" r="15"/>
		<path class="st3" d="M41,41c-0.3,0-0.7,0-1,0.1c7.8,0.5,14,7,14,14.9c0,7.9-6.2,14.4-14,14.9c0.3,0,0.7,0.1,1,0.1    c8.3,0,15-6.7,15-15C56,47.7,49.3,41,41,41z"/>
		<path class="st4" d="M41,69c-7.2,0-13-5.8-13-13c0-7.2,5.8-13,13-13c7.2,0,13,5.8,13,13C54,63.2,48.2,69,41,69z"/>
		<circle class="st2" cx="87" cy="56" r="15"/>
		<path class="st3" d="M87,41c-0.3,0-0.7,0-1,0.1c7.8,0.5,14,7,14,14.9c0,7.9-6.2,14.4-14,14.9c0.3,0,0.7,0.1,1,0.1    c8.3,0,15-6.7,15-15C102,47.7,95.3,41,87,41z"/>
		<path class="st4" d="M87,69c7.2,0,13-5.8,13-13c0-7.2-5.8-13-13-13c-7.2,0-13,5.8-13,13C74,63.2,79.8,69,87,69z"/>
		<circle class="st5" cx="64" cy="55" r="11"/>
		<path class="st6" d="M64,64c-5,0-9-4-9-9c0-5,4-9,9-9c5,0,9,4,9,9C73,60,69,64,64,64z"/>
		<path class="st4" d="M64,50c-3,0-8,4-13,0c0,5,0,20,0,24c2,0,6-9,13-9s11,9,13,9c0-4,0-19,0-24C72,54,67,50,64,50z"/>
		<path class="st7" d="M51,50c0,5,0,20,0,24c1,0,3.5-3.9,6.9-6.6C58,66.6,58,65.8,58,65c0-5.2-1.8-10-4.8-13.7    C52.5,51,52,50.6,51,50z"/>
		<circle class="st5" cx="64" cy="55" r="3"/>
		<circle class="st2" cx="35" cy="65" r="22"/>
		<path class="st3" d="M35,43c-0.2,0-0.3,0-0.5,0C46.4,43.3,56,53,56,65c0,12-9.6,21.7-21.5,22c0.2,0,0.3,0,0.5,0    c12.2,0,22-9.8,22-22C57,52.8,47.2,43,35,43z"/>
		<path class="st2" d="M35,85c-11,0-20-9-20-20c0-11,9-20,20-20c11,0,20,9,20,20C55,76,46,85,35,85z"/>
		<path class="st8" d="M35,84c-10.5,0-19-8.5-19-19c0-10.5,8.5-19,19-19c10.5,0,19,8.5,19,19C54,75.5,45.5,84,35,84z"/>
		<path class="st9" d="M44.9,63.4l7.9-1.3c-1.2-7.6-7.3-13.7-14.9-14.9l-1.3,7.9C40.8,55.8,44.2,59.2,44.9,63.4z"/>
		<path class="st10" d="M25.8,61l-7.3-3.2c-3.1,7.1-1.2,15.5,4.6,20.6l5.3-6C25.2,69.6,24.1,65,25.8,61z"/>
		<circle class="st11" cx="35" cy="53" r="3"/>
		<circle class="st11" cx="25" cy="65" r="2"/>
		<circle class="st12" cx="33" cy="73" r="6"/>
		<circle class="st2" cx="93" cy="65" r="22"/>
		<path class="st3" d="M93,43c-0.3,0-0.7,0-1,0c11.7,0.5,21,10.2,21,22c0,11.8-9.3,21.5-21,22c0.3,0,0.7,0,1,0c12.2,0,22-9.8,22-22    C115,52.8,105.2,43,93,43z"/>
		<path class="st2" d="M93,85c-11,0-20-9-20-20c0-11,9-20,20-20c11,0,20,9,20,20C113,76,104,85,93,85z"/>
		<path class="st8" d="M93,84c-10.5,0-19-8.5-19-19c0-10.5,8.5-19,19-19c10.5,0,19,8.5,19,19C112,75.5,103.5,84,93,84z"/>
		<path class="st9" d="M102.9,63.4l7.9-1.3c-1.2-7.6-7.3-13.7-14.9-14.9l-1.3,7.9C98.8,55.8,102.2,59.2,102.9,63.4z"/>
		<path class="st10" d="M83.8,61l-7.3-3.2c-3.1,7.1-1.2,15.5,4.6,20.6l5.3-6C83.2,69.6,82.1,65,83.8,61z"/>
		<circle class="st11" cx="93" cy="53" r="3"/>
		<circle class="st11" cx="83" cy="65" r="2"/>
		<circle class="st12" cx="91" cy="73" r="6"/>
	</g>
</g>
</svg>